<svg width="10" height="10" viewBox="0 0 10 10" fill="none" xmlns="http://www.w3.org/2000/svg">
<path d="M5.58234 0.949804L5.58235 0.949786C5.81815 0.679308 6.09738 0.465594 6.40365 0.320094C6.70987 0.174622 7.03749 0.1 7.36794 0.1C7.69839 0.1 8.02601 0.174622 8.33223 0.320094C8.6385 0.465594 8.91773 0.679308 9.15353 0.949786L9.22891 0.884073L9.15356 0.949821C9.38949 1.2202 9.57725 1.54193 9.70555 1.89692C9.83384 2.25192 9.9 2.6328 9.9 3.0177C9.9 3.40261 9.83384 3.78349 9.70555 4.13848C9.57725 4.49348 9.38949 4.81521 9.15356 5.08559L9.15354 5.0856L8.64644 5.66701L4.99987 9.84786L1.3533 5.66701L0.8462 5.0856C0.369626 4.5392 0.1 3.79553 0.1 3.0177C0.1 2.23988 0.369625 1.4962 0.8462 0.949804C1.32239 0.403838 1.96508 0.100293 2.6318 0.100293C3.29852 0.100293 3.94121 0.403838 4.41741 0.949804L4.92451 1.5312C4.9435 1.55298 4.97098 1.56547 4.99987 1.56547C5.02876 1.56547 5.05624 1.55298 5.07523 1.5312L5.58234 0.949804Z" stroke="black" stroke-width="0.2" stroke-linecap="round" stroke-linejoin="round"/>
</svg>
