<svg width="10" height="10" viewBox="0 0 10 10" fill="none" xmlns="http://www.w3.org/2000/svg">
<path d="M9.22891 0.884073C8.98456 0.603796 8.69445 0.38146 8.37514 0.229768C8.05583 0.0780762 7.71358 0 7.36794 0C7.0223 0 6.68005 0.0780762 6.36074 0.229768C6.04143 0.38146 5.75132 0.603796 5.50697 0.884073L4.99987 1.46547L4.49277 0.884073C3.99921 0.318198 3.3298 0.000293312 2.6318 0.000293318C1.93381 0.000293324 1.2644 0.318198 0.770838 0.884073C0.277279 1.44995 5.20049e-09 2.21744 0 3.0177C-5.20049e-09 3.81797 0.277279 4.58546 0.770838 5.15134L1.27794 5.73274L4.99987 10L8.72181 5.73274L9.22891 5.15134C9.47337 4.87119 9.66729 4.53857 9.79959 4.17247C9.9319 3.80638 10 3.41398 10 3.0177C10 2.62143 9.9319 2.22903 9.79959 1.86293C9.66729 1.49684 9.47337 1.16422 9.22891 0.884073Z" fill="#A091FF"/>
</svg>
